<svg xmlns="http://www.w3.org/2000/svg" version="1.1" xmlns:xlink="http://www.w3.org/1999/xlink" xmlns:svgjs="http://svgjs.dev/svgjs" width="1500" height="628" viewBox="0 0 1500 628"><g transform="matrix(1,0,0,1,-0.9090909090909918,-0.3212377005959297)"><svg viewBox="0 0 396 166" data-background-color="#ffffff" preserveAspectRatio="xMidYMid meet" height="628" width="1500" xmlns="http://www.w3.org/2000/svg" xmlns:xlink="http://www.w3.org/1999/xlink"><g id="tight-bounds" transform="matrix(1,0,0,1,0.2400000000000091,0.08491315015751866)"><svg viewBox="0 0 395.52 165.83017369968496" height="165.83017369968496" width="395.52"><g><svg viewBox="0 0 395.52 165.83017369968496" height="165.83017369968496" width="395.52"><g transform="matrix(1,0,0,1,0,99.74468540306897)"><svg viewBox="0 0 395.52 66.08548829661599" height="66.08548829661599" width="395.52"><g id="textblocktransform"><svg viewBox="0 0 395.52 66.08548829661599" height="66.08548829661599" width="395.52" id="textblock"><g><svg viewBox="0 0 395.52 35.64335458558117" height="35.64335458558117" width="395.52"><g transform="matrix(1,0,0,1,0,0)"><svg width="395.52" viewBox="4.5 -36 407.76 36.75" height="35.64335458558117" data-palette-color="#067627"><path d="M4.5-36L10.9-36Q14.45-36 17.43-35.18 20.4-34.35 22.53-32.3 24.65-30.25 25.85-26.78 27.05-23.3 27.05-18L27.05-18Q27.05-12.85 25.88-9.4 24.7-5.95 22.55-3.85 20.4-1.75 17.45-0.88 14.5 0 11 0L11 0 4.5 0 4.5-36ZM10.85-32.85L8.75-32.85 8.75-3.3 10.95-3.3Q14-3.3 16.23-4.08 18.45-4.85 19.9-6.6 21.35-8.35 22.05-11.15 22.75-13.95 22.75-18L22.75-18Q22.75-25.75 19.9-29.3 17.05-32.85 10.85-32.85L10.85-32.85ZM56.5 0L51.7 0 44.4-10.3 39.1-10.3 39.1 0 35.05 0 35.05-28 42.5-28Q45.05-28 47.15-27.5 49.25-27 50.75-25.9 52.25-24.8 53.1-23.13 53.95-21.45 53.95-19.15L53.95-19.15Q53.95-15.65 52.4-13.75 50.85-11.85 48.45-11L48.45-11 56.5 0ZM42.6-24.9L39.1-24.9 39.1-13.4 42.4-13.4Q46.15-13.4 47.97-14.73 49.8-16.05 49.8-19.15L49.8-19.15Q49.8-22.1 47.97-23.5 46.15-24.9 42.6-24.9L42.6-24.9ZM61.75-28L65.84-28 65.84 0 61.75 0 61.75-28ZM90.84-28L94.94-28 85.69 0 80.09 0 70.84-28 75.34-28 82.99-3.1 90.84-28ZM115.44-15.85L115.44-12.6 104.04-12.6 104.04-3.35 116.89-3.35 116.89 0 99.94 0 99.94-28 116.89-28 116.89-24.65 104.04-24.65 104.04-15.85 115.44-15.85ZM152.69-36L156.59-36 150.59 0 145.49 0 139.14-26.8 132.59 0 127.14 0 121.14-36 125.49-36 130.24-4.45 136.59-31.35 142.04-31.35 147.99-4.55 152.69-36ZM162.34-28L166.44-28 166.44 0 162.34 0 162.34-28ZM173.43-5.2L176.88-6.8Q177.18-6.1 177.78-5.33 178.38-4.55 179.28-3.9 180.18-3.25 181.41-2.85 182.63-2.45 184.13-2.45L184.13-2.45Q185.23-2.45 186.33-2.7 187.43-2.95 188.28-3.5 189.13-4.05 189.68-4.93 190.23-5.8 190.23-7.05L190.23-7.05Q190.23-8.3 189.86-9.13 189.48-9.95 188.58-10.58 187.68-11.2 186.18-11.78 184.68-12.35 182.43-13.1L182.43-13.1Q178.83-14.3 176.76-16.1 174.68-17.9 174.68-21.05L174.68-21.05Q174.68-22.45 175.33-23.78 175.98-25.1 177.21-26.13 178.43-27.15 180.21-27.75 181.98-28.35 184.28-28.35L184.28-28.35Q187.73-28.35 190.16-26.9 192.58-25.45 193.88-23.05L193.88-23.05 190.38-21.65Q189.48-23.4 188.06-24.33 186.63-25.25 184.38-25.25L184.38-25.25Q183.28-25.25 182.23-25.03 181.18-24.8 180.38-24.33 179.58-23.85 179.08-23.13 178.58-22.4 178.58-21.35L178.58-21.35Q178.58-20.3 178.96-19.58 179.33-18.85 180.13-18.25 180.93-17.65 182.23-17.13 183.53-16.6 185.43-15.9L185.43-15.9Q187.63-15.1 189.28-14.38 190.93-13.65 192.06-12.7 193.18-11.75 193.73-10.45 194.28-9.15 194.28-7.2L194.28-7.2Q194.28-5.45 193.56-4 192.83-2.55 191.51-1.5 190.18-0.45 188.31 0.15 186.43 0.75 184.13 0.75L184.13 0.75Q181.88 0.75 180.11 0.2 178.33-0.35 177.01-1.23 175.68-2.1 174.78-3.15 173.88-4.2 173.43-5.2L173.43-5.2ZM217.28-15.85L217.28-12.6 205.88-12.6 205.88-3.35 218.73-3.35 218.73 0 201.78 0 201.78-28 218.73-28 218.73-24.65 205.88-24.65 205.88-15.85 217.28-15.85ZM263.83 0L258.78 0 250.73-14.1 245.48-14.1 245.48 0 241.23 0 241.23-36 248.73-36Q254.58-36 257.88-33.33 261.18-30.65 261.18-24.9L261.18-24.9Q261.18-22.85 260.68-21.28 260.18-19.7 259.33-18.5 258.48-17.3 257.33-16.45 256.18-15.6 254.88-15.05L254.88-15.05 263.83 0ZM248.68-32.75L245.48-32.75 245.48-17.35 248.83-17.35Q252.73-17.35 254.78-19.23 256.83-21.1 256.83-24.9L256.83-24.9Q256.83-28.7 254.98-30.73 253.13-32.75 248.68-32.75L248.68-32.75ZM284.57-15.85L284.57-12.6 273.17-12.6 273.17-3.35 286.02-3.35 286.02 0 269.07 0 269.07-28 286.02-28 286.02-24.65 273.17-24.65 273.17-15.85 284.57-15.85ZM309.77-28L313.52-28 313.52 0 307.72 0 297.37-23.4 297.37 0 293.52 0 293.52-28 299.42-28 309.77-4.85 309.77-28ZM339.87-28L339.87-24.45 331.57-24.45 331.57 0 327.47 0 327.47-24.45 319.27-24.45 319.27-28 339.87-28ZM365.37 0L360.92 0 358.57-6.75 346.07-6.75 343.67 0 339.52 0 350.02-28 354.92-28 365.37 0ZM352.42-24.7L347.17-9.95 357.47-9.95 352.42-24.7ZM370.36-28L374.46-28 374.46-3.55 387.91-3.55 387.91 0 370.36 0 370.36-28ZM391.41-5.2L394.86-6.8Q395.16-6.1 395.76-5.33 396.36-4.55 397.26-3.9 398.16-3.25 399.39-2.85 400.61-2.45 402.11-2.45L402.11-2.45Q403.21-2.45 404.31-2.7 405.41-2.95 406.26-3.5 407.11-4.05 407.66-4.93 408.21-5.8 408.21-7.05L408.21-7.05Q408.21-8.3 407.84-9.13 407.46-9.95 406.56-10.58 405.66-11.2 404.16-11.78 402.66-12.35 400.41-13.1L400.41-13.1Q396.81-14.3 394.74-16.1 392.66-17.9 392.66-21.05L392.66-21.05Q392.66-22.45 393.31-23.78 393.96-25.1 395.19-26.13 396.41-27.15 398.19-27.75 399.96-28.35 402.26-28.35L402.26-28.35Q405.71-28.35 408.14-26.9 410.56-25.45 411.86-23.05L411.86-23.05 408.36-21.65Q407.46-23.4 406.04-24.33 404.61-25.25 402.36-25.25L402.36-25.25Q401.26-25.25 400.21-25.03 399.16-24.8 398.36-24.33 397.56-23.85 397.06-23.13 396.56-22.4 396.56-21.35L396.56-21.35Q396.56-20.3 396.94-19.58 397.31-18.85 398.11-18.25 398.91-17.65 400.21-17.13 401.51-16.6 403.41-15.9L403.41-15.9Q405.61-15.1 407.26-14.38 408.91-13.65 410.04-12.7 411.16-11.75 411.71-10.45 412.26-9.15 412.26-7.2L412.26-7.2Q412.26-5.45 411.54-4 410.81-2.55 409.49-1.5 408.16-0.45 406.29 0.15 404.41 0.75 402.11 0.75L402.11 0.75Q399.86 0.75 398.09 0.2 396.31-0.35 394.99-1.23 393.66-2.1 392.76-3.15 391.86-4.2 391.41-5.2L391.41-5.2Z" opacity="1" transform="matrix(1,0,0,1,0,0)" fill="#067627" class="wordmark-text-0" data-fill-palette-color="primary" id="text-0"></path></svg></g></svg></g><g transform="matrix(1,0,0,1,90.95888754786608,44.05789516272684)"><svg viewBox="0 0 213.6022249042678 22.027593133889162" height="22.027593133889162" width="213.6022249042678"><g transform="matrix(1,0,0,1,0,0)"><svg width="213.6022249042678" viewBox="1.5999999999999999 -37.75 489.65 50.5" height="22.027593133889162" data-palette-color="#067627"><path d="M9.4-34.95L9.4-34.95Q10.95-34.95 12.95-35 14.95-35.05 16.25-35.05L16.25-35.05Q26.1-35.05 31.15-30.85 36.2-26.65 36.2-18.6L36.2-18.6Q36.2-12.7 33.63-8.53 31.05-4.35 26.5-2.15 21.95 0.05 16.05 0.05L16.05 0.05Q15.35 0.05 14.1 0.03 12.85 0 11.55-0.03 10.25-0.05 9.35-0.05L9.35-0.05Q8.55-0.05 7.1-0.03 5.65 0 4.15 0.03 2.65 0.05 1.65 0.05L1.65 0.05Q1.55-0.7 1.65-1.55L1.65-1.55Q4-1.8 5-2.02 6-2.25 6.25-3 6.5-3.75 6.5-5.55L6.5-5.55 6.5-28.8Q6.5-30.9 6.25-31.8 6-32.7 4.98-32.98 3.95-33.25 1.65-33.45L1.65-33.45Q1.55-34.2 1.65-35.05L1.65-35.05Q2.7-35.05 4.15-35.02 5.6-35 7.03-34.98 8.45-34.95 9.4-34.95ZM12-32.75L12-32.75 12-6.2Q12-4.95 12-4.1 12-3.25 12.05-2.7L12.05-2.7Q14.45-2 17-2L17-2Q21.35-2 24.28-4.05 27.2-6.1 28.68-9.65 30.15-13.2 30.15-17.7L30.15-17.7Q30.15-24.7 26.58-28.85 23-33 16-33L16-33Q14.75-33 13.63-32.9 12.5-32.8 12-32.75ZM40.05 0.05L40.05 0.05Q39.9-0.75 40.05-1.5L40.05-1.5Q41.75-1.6 42.55-1.83 43.35-2.05 43.6-2.8 43.85-3.55 43.85-5.2L43.85-5.2 43.85-16.4Q43.85-18.35 43.67-19.3 43.5-20.25 42.72-20.63 41.95-21 40.1-21.25L40.1-21.25Q39.95-21.95 40.1-22.55L40.1-22.55Q42.1-22.95 44-23.48 45.9-24 48-24.85L48-24.85 48.85-24.55 48.85-20.15Q52.35-24.6 56-24.6L56-24.6Q57.75-24.6 58.6-23.68 59.45-22.75 59.45-21.6L59.45-21.6Q59.45-20.25 58.55-19.53 57.65-18.8 56.5-18.8L56.5-18.8Q55.55-18.8 54.62-19.3 53.7-19.8 53.25-20.85L53.25-20.85Q51.55-20.85 50.22-19.53 48.9-18.2 48.9-16.45L48.9-16.45 48.9-5.7Q48.9-3.75 49.12-2.9 49.35-2.05 50.32-1.83 51.3-1.6 53.5-1.5L53.5-1.5Q53.6-0.8 53.5 0.05L53.5 0.05Q51.8 0.05 50 0 48.2-0.05 46.3-0.05L46.3-0.05Q44.45-0.05 43.02 0 41.6 0.05 40.05 0.05ZM73.05 0.05L73.05 0.05Q71.65 0.05 70.15 0 68.65-0.05 66.9-0.05L66.9-0.05Q65.3-0.05 63.67 0 62.05 0.05 60.55 0.05L60.55 0.05Q60.4-0.75 60.55-1.5L60.55-1.5Q62.25-1.6 63.05-1.83 63.85-2.05 64.1-2.8 64.35-3.55 64.35-5.2L64.35-5.2 64.35-16.4Q64.35-18.35 64.2-19.3 64.05-20.25 63.27-20.63 62.5-21 60.6-21.25L60.6-21.25Q60.45-21.95 60.6-22.55L60.6-22.55Q62.8-22.95 64.8-23.55 66.8-24.15 68.65-24.85L68.65-24.85 69.5-24.55Q69.45-23 69.42-21.65 69.4-20.3 69.4-19.1L69.4-19.1 69.4-5.7Q69.4-3.75 69.62-2.9 69.85-2.05 70.62-1.83 71.4-1.6 73.05-1.5L73.05-1.5Q73.2-0.75 73.05 0.05ZM63.05-33.35L63.05-33.35Q63.05-34.8 64.07-35.8 65.1-36.8 66.55-36.8L66.55-36.8Q67.95-36.8 68.97-35.8 70-34.8 70-33.4L70-33.4Q70-32.1 69-31.03 68-29.95 66.45-29.95L66.45-29.95Q65.05-29.95 64.05-30.95 63.05-31.95 63.05-33.35ZM95.99-19L87.94-0.25 85.19 0.3 77.39-19.25Q76.99-20.35 76.54-20.93 76.09-21.5 75.37-21.8 74.64-22.1 73.24-22.25L73.24-22.25Q73.14-22.95 73.24-23.85L73.24-23.85Q74.69-23.85 76.27-23.8 77.84-23.75 79.39-23.75L79.39-23.75Q80.84-23.75 82.54-23.8 84.24-23.85 85.39-23.85L85.39-23.85Q85.54-23.05 85.39-22.25L85.39-22.25Q83.69-22.15 83.07-21.9 82.44-21.65 82.44-20.85L82.44-20.85Q82.44-20.45 82.62-19.85 82.79-19.25 82.94-18.85L82.94-18.85Q83.09-18.45 83.54-17.25 83.99-16.05 84.62-14.48 85.24-12.9 85.89-11.23 86.54-9.55 87.12-8.15 87.69-6.75 88.04-5.9L88.04-5.9Q89.09-8.3 90.57-11.7 92.04-15.1 93.44-18.6L93.44-18.6Q93.69-19.3 93.87-19.88 94.04-20.45 94.04-20.8L94.04-20.8Q94.04-21.5 93.39-21.8 92.74-22.1 91.04-22.25L91.04-22.25Q90.99-23.05 91.04-23.85L91.04-23.85Q92.34-23.85 93.52-23.8 94.69-23.75 96.34-23.75L96.34-23.75Q97.09-23.75 97.77-23.78 98.44-23.8 100.29-23.85L100.29-23.85Q100.39-23 100.29-22.25L100.29-22.25Q98.19-22.1 97.44-21.33 96.69-20.55 95.99-19L95.99-19ZM111.14 0.6L111.14 0.6Q107.59 0.6 105.14-1.05 102.69-2.7 101.42-5.48 100.14-8.25 100.14-11.6L100.14-11.6Q100.14-15.05 101.47-18 102.79-20.95 105.34-22.78 107.89-24.6 111.54-24.6L111.54-24.6Q115.94-24.6 118.42-21.98 120.89-19.35 120.89-15.2L120.89-15.2Q120.89-14.7 120.87-14.33 120.84-13.95 120.79-13.7L120.79-13.7 105.04-13.85Q105.04-13.65 105.04-13.5L105.04-13.5Q105.04-8.6 107.29-5.8 109.54-3 113.59-3L113.59-3Q116.99-3 120.29-5.2L120.29-5.2Q120.79-4.6 121.04-4.05L121.04-4.05Q116.79 0.6 111.14 0.6ZM105.19-15.7L105.19-15.7 115.54-15.9Q115.59-16 115.59-16.18 115.59-16.35 115.59-16.4L115.59-16.4Q115.59-19.1 114.42-20.9 113.24-22.7 110.94-22.7L110.94-22.7Q108.79-22.7 107.19-20.95 105.59-19.2 105.19-15.7ZM138.74 12.75L138.74 12.75Q137.39 12.75 136.66 11.98 135.94 11.2 135.94 10.15L135.94 10.15Q135.94 8.75 137.44 7.43 138.94 6.1 142.34 6.1L142.34 6.1Q142.99 4.95 143.61 3.63 144.24 2.3 145.09 0.35L145.09 0.35Q144.54-1.05 143.69-3.25 142.84-5.45 141.76-8.13 140.69-10.8 139.59-13.68 138.49-16.55 137.44-19.25L137.44-19.25Q136.84-20.85 136.11-21.45 135.39-22.05 133.34-22.25L133.34-22.25Q133.19-22.95 133.34-23.8L133.34-23.8Q134.79-23.8 136.29-23.75 137.79-23.7 139.39-23.7L139.39-23.7Q140.84-23.7 142.54-23.75 144.24-23.8 145.44-23.8L145.44-23.8Q145.54-23.05 145.44-22.25L145.44-22.25Q143.74-22.15 143.06-21.9 142.39-21.65 142.39-20.9L142.39-20.9Q142.39-20.2 142.89-18.75L142.89-18.75Q144.19-15.2 145.41-12.2 146.64-9.2 147.89-6.05L147.89-6.05Q149.49-9.7 150.71-12.6 151.94-15.5 153.19-18.65L153.19-18.65Q153.74-20.1 153.74-20.8L153.74-20.8Q153.74-21.5 152.99-21.8 152.24-22.1 150.34-22.25L150.34-22.25Q150.19-23.05 150.34-23.8L150.34-23.8Q151.59-23.8 152.91-23.75 154.24-23.7 155.74-23.7L155.74-23.7Q156.74-23.7 157.91-23.75 159.09-23.8 160.04-23.8L160.04-23.8Q160.19-23.05 160.04-22.25L160.04-22.25Q157.94-22.1 157.19-21.33 156.44-20.55 155.79-19L155.79-19 147.24 0.95Q146.99 1.55 146.34 2.98 145.69 4.4 144.96 5.93 144.24 7.45 143.74 8.45L143.74 8.45Q142.49 10.9 141.29 11.83 140.09 12.75 138.74 12.75ZM172.03 0.6L172.03 0.6Q168.38 0.6 165.66-0.98 162.93-2.55 161.43-5.33 159.93-8.1 159.93-11.7L159.93-11.7Q159.93-15.6 161.51-18.5 163.08-21.4 165.93-23 168.78-24.6 172.48-24.6L172.48-24.6Q176.13-24.6 178.83-23 181.53-21.4 183.03-18.6 184.53-15.8 184.53-12.25L184.53-12.25Q184.53-8.6 182.96-5.68 181.38-2.75 178.58-1.07 175.78 0.6 172.03 0.6ZM165.58-12.3L165.58-12.3Q165.58-7.2 167.26-4.23 168.93-1.25 172.28-1.25L172.28-1.25Q175.48-1.25 177.18-4.08 178.88-6.9 178.88-11.65L178.88-11.65Q178.88-16.7 177.18-19.7 175.48-22.7 172.23-22.7L172.23-22.7Q169.03-22.7 167.31-19.95 165.58-17.2 165.58-12.3ZM197.83 0.6L197.83 0.6Q194.58 0.6 192.81-1.33 191.03-3.25 191.03-6.9L191.03-6.9 191.03-17Q191.03-18.95 190.86-19.9 190.68-20.85 189.91-21.25 189.13-21.65 187.28-21.9L187.28-21.9Q187.03-22.55 187.28-23.15L187.28-23.15Q189.43-23.45 191.41-23.8 193.38-24.15 195.38-24.65L195.38-24.65 196.13-24.3Q196.08-22.75 196.06-21.38 196.03-20 196.03-18.8L196.03-18.8 196.03-8.7Q196.03-5.7 196.96-4.23 197.88-2.75 200.58-2.75L200.58-2.75Q202.08-2.75 203.41-3.43 204.73-4.1 205.93-5.4L205.93-5.4 205.93-17Q205.93-18.95 205.76-19.9 205.58-20.85 204.81-21.25 204.03-21.65 202.18-21.9L202.18-21.9Q202.03-22.55 202.18-23.15L202.18-23.15Q204.33-23.45 206.31-23.8 208.28-24.15 210.33-24.65L210.33-24.65 211.08-24.3Q211.03-22.75 211.01-21.38 210.98-20 210.98-18.8L210.98-18.8 210.98-5.85Q210.98-4.35 211.16-3.6 211.33-2.85 212.16-2.53 212.98-2.2 214.88-2L214.88-2Q214.93-1.4 214.88-0.75L214.88-0.75Q212.73-0.55 210.78-0.25 208.83 0.05 206.98 0.5L206.98 0.5 206.18 0.15 206.08-3.35Q201.93 0.6 197.83 0.6ZM217.03 0.05L217.03 0.05Q216.88-0.75 217.03-1.5L217.03-1.5Q218.73-1.6 219.53-1.83 220.33-2.05 220.58-2.8 220.83-3.55 220.83-5.2L220.83-5.2 220.83-16.4Q220.83-18.35 220.65-19.3 220.48-20.25 219.7-20.63 218.93-21 217.08-21.25L217.08-21.25Q216.93-21.95 217.08-22.55L217.08-22.55Q219.08-22.95 220.98-23.48 222.88-24 224.98-24.85L224.98-24.85 225.83-24.55 225.83-20.15Q229.33-24.6 232.98-24.6L232.98-24.6Q234.73-24.6 235.58-23.68 236.43-22.75 236.43-21.6L236.43-21.6Q236.43-20.25 235.53-19.53 234.63-18.8 233.48-18.8L233.48-18.8Q232.53-18.8 231.6-19.3 230.68-19.8 230.23-20.85L230.23-20.85Q228.53-20.85 227.2-19.53 225.88-18.2 225.88-16.45L225.88-16.45 225.88-5.7Q225.88-3.75 226.1-2.9 226.33-2.05 227.3-1.83 228.28-1.6 230.48-1.5L230.48-1.5Q230.58-0.8 230.48 0.05L230.48 0.05Q228.78 0.05 226.98 0 225.18-0.05 223.28-0.05L223.28-0.05Q221.43-0.05 220 0 218.58 0.05 217.03 0.05ZM266.32 0.5L266.32 0.5Q263.02 0.5 262.17-2.8L262.17-2.8Q258.62 0.6 254.92 0.6L254.92 0.6Q252.37 0.6 250.6-0.93 248.82-2.45 248.82-5.15L248.82-5.15Q248.82-11.75 262.27-13.45L262.27-13.45Q262.27-14.65 262.3-15.9 262.32-17.15 262.32-18.55L262.32-18.55Q262.32-20.3 261.05-21.28 259.77-22.25 257.97-22.25L257.97-22.25Q256.67-22.25 255.77-21.85L255.77-21.85Q255.77-20.7 255.27-19.5 254.77-18.3 253.9-17.48 253.02-16.65 251.77-16.65L251.77-16.65Q250.67-16.65 250.05-17.28 249.42-17.9 249.42-18.8L249.42-18.8Q249.42-20 250.55-21.08 251.67-22.15 253.42-22.93 255.17-23.7 257.07-24.15 258.97-24.6 260.47-24.6L260.47-24.6Q262.32-24.6 263.9-23.93 265.47-23.25 266.45-21.93 267.42-20.6 267.42-18.65L267.42-18.65Q267.42-17.45 267.37-15.53 267.32-13.6 267.3-11.43 267.27-9.25 267.22-7.3 267.17-5.35 267.17-4.15L267.17-4.15Q267.17-2.55 268.57-2.55L268.57-2.55Q269.47-2.55 271.32-3.15L271.32-3.15Q271.52-2.9 271.6-2.6 271.67-2.3 271.72-2.05L271.72-2.05Q270.47-0.7 269.1-0.1 267.72 0.5 266.32 0.5ZM262.17-4.15L262.17-4.15 262.27-11.65Q257.67-11.05 255.95-9.7 254.22-8.35 254.22-6.25L254.22-6.25Q254.22-4.5 255.15-3.58 256.07-2.65 257.47-2.65L257.47-2.65Q258.37-2.65 259.5-3.05 260.62-3.45 262.17-4.15ZM292.62 0.65L292.62 0.65 291.82 0.3 291.62-3.15Q289.87-1.25 288.05-0.33 286.22 0.6 284.02 0.6L284.02 0.6Q280.92 0.6 278.6-1.07 276.27-2.75 275.02-5.45 273.77-8.15 273.77-11.3L273.77-11.3Q273.77-14.95 275.35-17.95 276.92-20.95 279.8-22.78 282.67-24.6 286.52-24.6L286.52-24.6Q287.67-24.6 288.92-24.43 290.17-24.25 291.52-23.85L291.52-23.85 291.52-30.25Q291.52-31.8 291.22-32.58 290.92-33.35 290.05-33.68 289.17-34 287.42-34.15L287.42-34.15Q287.27-34.8 287.42-35.5L287.42-35.5Q289.42-35.75 291.52-36.27 293.62-36.8 295.82-37.75L295.82-37.75 296.67-37.45Q296.62-36.35 296.6-34.95 296.57-33.55 296.57-31.9L296.57-31.9 296.57-7.1Q296.57-5.2 296.72-4.25 296.87-3.3 297.62-2.93 298.37-2.55 300.17-2.25L300.17-2.25Q300.32-1.6 300.17-0.9L300.17-0.9Q298.17-0.6 296.27-0.25 294.37 0.1 292.62 0.65ZM291.57-5.45L291.57-19.6Q289.42-22.55 285.92-22.55L285.92-22.55Q282.47-22.55 280.72-20.03 278.97-17.5 278.97-13.05L278.97-13.05Q278.97-10.45 279.67-8.05 280.37-5.65 281.97-4.1 283.57-2.55 286.22-2.55L286.22-2.55Q289.57-2.55 291.57-5.45L291.57-5.45ZM323.17-19L315.12-0.25 312.37 0.3 304.57-19.25Q304.17-20.35 303.72-20.93 303.27-21.5 302.54-21.8 301.82-22.1 300.42-22.25L300.42-22.25Q300.32-22.95 300.42-23.85L300.42-23.85Q301.87-23.85 303.44-23.8 305.02-23.75 306.57-23.75L306.57-23.75Q308.02-23.75 309.72-23.8 311.42-23.85 312.57-23.85L312.57-23.85Q312.72-23.05 312.57-22.25L312.57-22.25Q310.87-22.15 310.24-21.9 309.62-21.65 309.62-20.85L309.62-20.85Q309.62-20.45 309.79-19.85 309.97-19.25 310.12-18.85L310.12-18.85Q310.27-18.45 310.72-17.25 311.17-16.05 311.79-14.48 312.42-12.9 313.07-11.23 313.72-9.55 314.29-8.15 314.87-6.75 315.22-5.9L315.22-5.9Q316.27-8.3 317.74-11.7 319.22-15.1 320.62-18.6L320.62-18.6Q320.87-19.3 321.04-19.88 321.22-20.45 321.22-20.8L321.22-20.8Q321.22-21.5 320.57-21.8 319.92-22.1 318.22-22.25L318.22-22.25Q318.17-23.05 318.22-23.85L318.22-23.85Q319.52-23.85 320.69-23.8 321.87-23.75 323.52-23.75L323.52-23.75Q324.27-23.75 324.94-23.78 325.62-23.8 327.47-23.85L327.47-23.85Q327.57-23 327.47-22.25L327.47-22.25Q325.37-22.1 324.62-21.33 323.87-20.55 323.17-19L323.17-19ZM338.32 0.6L338.32 0.6Q334.77 0.6 332.32-1.05 329.87-2.7 328.59-5.48 327.32-8.25 327.32-11.6L327.32-11.6Q327.32-15.05 328.64-18 329.97-20.95 332.52-22.78 335.07-24.6 338.72-24.6L338.72-24.6Q343.12-24.6 345.59-21.98 348.07-19.35 348.07-15.2L348.07-15.2Q348.07-14.7 348.04-14.33 348.02-13.95 347.97-13.7L347.97-13.7 332.22-13.85Q332.22-13.65 332.22-13.5L332.22-13.5Q332.22-8.6 334.47-5.8 336.72-3 340.77-3L340.77-3Q344.17-3 347.47-5.2L347.47-5.2Q347.97-4.6 348.22-4.05L348.22-4.05Q343.97 0.6 338.32 0.6ZM332.37-15.7L332.37-15.7 342.72-15.9Q342.77-16 342.77-16.18 342.77-16.35 342.77-16.4L342.77-16.4Q342.77-19.1 341.59-20.9 340.42-22.7 338.12-22.7L338.12-22.7Q335.97-22.7 334.37-20.95 332.77-19.2 332.37-15.7ZM367.21 0.05L367.21 0.05Q367.11-0.75 367.21-1.5L367.21-1.5Q368.76-1.6 369.51-1.83 370.26-2.05 370.51-2.8 370.76-3.55 370.76-5.2L370.76-5.2 370.76-15.3Q370.76-18.3 369.84-19.78 368.91-21.25 366.16-21.25L366.16-21.25Q364.71-21.25 363.36-20.73 362.01-20.2 360.41-18.75L360.41-18.75 360.41-5.7Q360.41-3.75 360.64-2.9 360.86-2.05 361.61-1.83 362.36-1.6 363.96-1.5L363.96-1.5Q364.06-0.75 363.96 0.05L363.96 0.05Q362.56 0.05 361.04 0 359.51-0.05 357.76-0.05L357.76-0.05Q356.16-0.05 354.61 0 353.06 0.05 351.56 0.05L351.56 0.05Q351.41-0.75 351.56-1.5L351.56-1.5Q353.26-1.6 354.06-1.83 354.86-2.05 355.11-2.8 355.36-3.55 355.36-5.2L355.36-5.2 355.36-16.4Q355.36-18.35 355.19-19.3 355.01-20.25 354.24-20.63 353.46-21 351.61-21.25L351.61-21.25Q351.46-21.95 351.61-22.55L351.61-22.55Q355.91-23.4 359.51-24.85L359.51-24.85 360.36-24.55 360.36-20.8Q362.66-22.9 364.86-23.75 367.06-24.6 369.06-24.6L369.06-24.6Q372.36-24.6 374.11-22.65 375.86-20.7 375.86-17.05L375.86-17.05 375.86-5.7Q375.86-3.75 376.09-2.9 376.31-2.05 377.06-1.83 377.81-1.6 379.46-1.5L379.46-1.5Q379.56-0.75 379.46 0.05L379.46 0.05Q377.96 0.05 376.54 0 375.11-0.05 373.21-0.05L373.21-0.05Q371.36-0.05 369.99 0 368.61 0.05 367.21 0.05ZM391.31 0.6L391.31 0.6Q388.31 0.6 386.56-0.83 384.81-2.25 384.81-4.95L384.81-4.95Q384.81-9.35 384.89-13.45 384.96-17.55 385.01-21.35L385.01-21.35 381.21-21.35Q381.06-22.1 381.21-22.7L381.21-22.7Q386.16-24.8 388.66-29.55L388.66-29.55Q389.06-29.55 389.46-29.53 389.86-29.5 390.16-29.45L390.16-29.45Q390.11-28.15 390.09-26.7 390.06-25.25 390.01-23.65L390.01-23.65 397.61-23.65Q397.76-22.55 397.61-21.35L397.61-21.35 390.01-21.35Q389.91-17.85 389.89-13.98 389.86-10.1 389.86-6.2L389.86-6.2Q389.86-2.15 394.06-2.15L394.06-2.15Q395.86-2.15 397.41-3.1L397.41-3.1Q397.86-2.5 397.96-1.6L397.96-1.6Q395.01 0.6 391.31 0.6ZM409.76 0.6L409.76 0.6Q406.51 0.6 404.73-1.33 402.96-3.25 402.96-6.9L402.96-6.9 402.96-17Q402.96-18.95 402.78-19.9 402.61-20.85 401.83-21.25 401.06-21.65 399.21-21.9L399.21-21.9Q398.96-22.55 399.21-23.15L399.21-23.15Q401.36-23.45 403.33-23.8 405.31-24.15 407.31-24.65L407.31-24.65 408.06-24.3Q408.01-22.75 407.98-21.38 407.96-20 407.96-18.8L407.96-18.8 407.96-8.7Q407.96-5.7 408.88-4.23 409.81-2.75 412.51-2.75L412.51-2.75Q414.01-2.75 415.33-3.43 416.66-4.1 417.86-5.4L417.86-5.4 417.86-17Q417.86-18.95 417.68-19.9 417.51-20.85 416.73-21.25 415.96-21.65 414.11-21.9L414.11-21.9Q413.96-22.55 414.11-23.15L414.11-23.15Q416.26-23.45 418.23-23.8 420.21-24.15 422.26-24.65L422.26-24.65 423.01-24.3Q422.96-22.75 422.93-21.38 422.91-20 422.91-18.8L422.91-18.8 422.91-5.85Q422.91-4.35 423.08-3.6 423.26-2.85 424.08-2.53 424.91-2.2 426.81-2L426.81-2Q426.86-1.4 426.81-0.75L426.81-0.75Q424.66-0.55 422.71-0.25 420.76 0.05 418.91 0.5L418.91 0.5 418.11 0.15 418.01-3.35Q413.86 0.6 409.76 0.6ZM428.96 0.05L428.96 0.05Q428.81-0.75 428.96-1.5L428.96-1.5Q430.66-1.6 431.46-1.83 432.26-2.05 432.51-2.8 432.76-3.55 432.76-5.2L432.76-5.2 432.76-16.4Q432.76-18.35 432.58-19.3 432.41-20.25 431.63-20.63 430.86-21 429.01-21.25L429.01-21.25Q428.86-21.95 429.01-22.55L429.01-22.55Q431.01-22.95 432.91-23.48 434.81-24 436.91-24.85L436.91-24.85 437.76-24.55 437.76-20.15Q441.26-24.6 444.91-24.6L444.91-24.6Q446.66-24.6 447.51-23.68 448.36-22.75 448.36-21.6L448.36-21.6Q448.36-20.25 447.46-19.53 446.56-18.8 445.41-18.8L445.41-18.8Q444.46-18.8 443.53-19.3 442.61-19.8 442.16-20.85L442.16-20.85Q440.46-20.85 439.13-19.53 437.81-18.2 437.81-16.45L437.81-16.45 437.81-5.7Q437.81-3.75 438.03-2.9 438.26-2.05 439.23-1.83 440.21-1.6 442.41-1.5L442.41-1.5Q442.51-0.8 442.41 0.05L442.41 0.05Q440.71 0.05 438.91 0 437.11-0.05 435.21-0.05L435.21-0.05Q433.36-0.05 431.93 0 430.51 0.05 428.96 0.05ZM460.05 0.6L460.05 0.6Q456.5 0.6 454.05-1.05 451.6-2.7 450.33-5.48 449.05-8.25 449.05-11.6L449.05-11.6Q449.05-15.05 450.38-18 451.7-20.95 454.25-22.78 456.8-24.6 460.45-24.6L460.45-24.6Q464.85-24.6 467.33-21.98 469.8-19.35 469.8-15.2L469.8-15.2Q469.8-14.7 469.78-14.33 469.75-13.95 469.7-13.7L469.7-13.7 453.95-13.85Q453.95-13.65 453.95-13.5L453.95-13.5Q453.95-8.6 456.2-5.8 458.45-3 462.5-3L462.5-3Q465.9-3 469.2-5.2L469.2-5.2Q469.7-4.6 469.95-4.05L469.95-4.05Q465.7 0.6 460.05 0.6ZM454.1-15.7L454.1-15.7 464.45-15.9Q464.5-16 464.5-16.18 464.5-16.35 464.5-16.4L464.5-16.4Q464.5-19.1 463.33-20.9 462.15-22.7 459.85-22.7L459.85-22.7Q457.7-22.7 456.1-20.95 454.5-19.2 454.1-15.7ZM475.6-7.9L475.6-7.9Q476.35-4.6 478-2.88 479.65-1.15 482.25-1.15L482.25-1.15Q484.2-1.15 485.55-2.08 486.9-3 486.9-5L486.9-5Q486.9-6.5 486.18-7.4 485.45-8.3 484.18-8.93 482.9-9.55 481.3-10.2L481.3-10.2Q479.45-10.95 477.83-11.83 476.2-12.7 475.18-14.03 474.15-15.35 474.15-17.45L474.15-17.45Q474.15-19.85 475.43-21.43 476.7-23 478.73-23.8 480.75-24.6 483.05-24.6L483.05-24.6Q484.2-24.6 485.35-24.45 486.5-24.3 486.6-24.3L486.6-24.3Q487.6-24.15 488.45-24.13 489.3-24.1 489.35-24.1L489.35-24.1Q489.4-24.1 489.58-24.1 489.75-24.1 490.05-24.15L490.05-24.15Q490.05-22.55 490.1-20.9 490.15-19.25 490.3-17.4L490.3-17.4Q490.25-17.4 490.1-17.4L490.1-17.4Q489.65-17.35 489.28-17.32 488.9-17.3 488.55-17.35L488.55-17.35Q487.9-20.15 486.63-21.43 485.35-22.7 483.05-22.7L483.05-22.7Q481-22.7 479.78-21.8 478.55-20.9 478.55-19.3L478.55-19.3Q478.55-18 479.35-17.18 480.15-16.35 481.3-15.8 482.45-15.25 483.5-14.85L483.5-14.85Q485.45-14.1 487.23-13.18 489-12.25 490.13-10.8 491.25-9.35 491.25-6.9L491.25-6.9Q491.25-4.3 489.93-2.63 488.6-0.95 486.55-0.18 484.5 0.6 482.25 0.6L482.25 0.6Q480.95 0.6 479.68 0.4 478.4 0.2 478.3 0.2L478.3 0.2Q478.2 0.2 477.48 0.1 476.75 0 475.88-0.1 475-0.2 474.35-0.2L474.35-0.2Q474.35-1.75 474.23-3.65 474.1-5.55 473.95-7.85L473.95-7.85Q474.05-7.85 474.2-7.85L474.2-7.85Q474.65-7.9 474.98-7.93 475.3-7.95 475.6-7.9Z" opacity="1" transform="matrix(1,0,0,1,0,0)" fill="#067627" class="slogan-text-1" data-fill-palette-color="secondary" id="text-1"></path></svg></g></svg></g></svg></g></svg></g><g transform="matrix(1,0,0,1,132.59991435212464,0)"><svg viewBox="0 0 130.32017129575073 91.33014482592331" height="91.33014482592331" width="130.32017129575073"><g><svg version="1.1" xmlns="http://www.w3.org/2000/svg" xmlns:xlink="http://www.w3.org/1999/xlink" x="8" y="0" viewBox="11.855144043705312 19.526 76.29135083038855 60.949" enable-background="new 0 0 100 100" xml:space="preserve" height="91.33014482592331" width="114.32017129575073" class="icon-icon-0" data-fill-palette-color="accent" id="icon-0"><path d="M88.141 67.592L87.51 53.891c-0.1-2.158-1.535-3.85-3.27-3.85-0.209 0-0.393-0.013-0.544-0.031v-4.534c0-0.194-0.02-0.381-0.047-0.567 1.591-0.791 2.765-2.46 2.765-4.047 0-1.953-1.756-3.542-3.914-3.542h-3.26c-0.402 0-0.787 0.064-1.151 0.178l-1.86-10.62c-0.098-0.56-0.315-1.084-0.617-1.554 0.073-0.297 0.114-0.607 0.114-0.928v-0.957c0-2.158-1.755-3.913-3.913-3.913H28.188c-2.158 0-3.913 1.755-3.913 3.913v0.957c0 0.32 0.041 0.63 0.114 0.928-0.302 0.47-0.519 0.994-0.618 1.554l-1.86 10.62c-0.364-0.114-0.75-0.178-1.15-0.178H17.5c-2.158 0-3.913 1.589-3.913 3.542 0 1.586 1.174 3.255 2.764 4.047-0.027 0.185-0.046 0.373-0.046 0.567v4.534c-0.152 0.018-0.334 0.031-0.543 0.031-1.735 0-3.171 1.692-3.271 3.85l-0.63 13.701c-0.058 1.271 0.317 2.427 1.029 3.172 0.491 0.516 1.125 0.799 1.784 0.799h2.282v4.999c0 2.158 1.755 3.913 3.913 3.913h3.913c2.158 0 3.913-1.755 3.913-3.913v-4.999h42.609v4.999c0 2.158 1.755 3.913 3.912 3.913h3.914c2.157 0 3.912-1.755 3.912-3.913v-4.999h2.283c0.66 0 1.293-0.283 1.784-0.799C87.823 70.019 88.197 68.862 88.141 67.592zM26.087 76.562c0 0.72-0.585 1.305-1.304 1.305H20.87c-0.719 0-1.304-0.585-1.304-1.305v-4.999h6.521V76.562zM24.766 60.123c-2.752 0-4.983-2.076-4.983-4.637 0-2.56 2.231-4.635 4.983-4.635 2.751 0 4.983 2.075 4.983 4.635C29.749 58.047 27.518 60.123 24.766 60.123zM63.207 59.892H37.29c-0.36 0-0.652-0.292-0.652-0.651 0-0.361 0.292-0.652 0.652-0.652h25.917c0.36 0 0.652 0.291 0.652 0.652C63.859 59.6 63.567 59.892 63.207 59.892zM63.207 56.561H37.29c-0.36 0-0.652-0.293-0.652-0.652 0-0.36 0.292-0.652 0.652-0.652h25.917c0.36 0 0.652 0.292 0.652 0.652C63.859 56.268 63.567 56.561 63.207 56.561zM63.207 53.229H37.29c-0.36 0-0.652-0.292-0.652-0.652 0-0.359 0.292-0.652 0.652-0.652h25.917c0.36 0 0.652 0.293 0.652 0.652C63.859 52.937 63.567 53.229 63.207 53.229zM68.178 43.072c-1.227 0-2.645-0.153-3.529-0.382l-11.797-3.044c-0.56-0.144-1.244-0.24-1.982-0.283v-1.496c0.678-0.199 2.348-2.417 1.794-2.972C52.109 34.341 50.896 35.19 50 35.87c-0.924-0.707-2.04-1.597-2.663-0.974s1.123 2.775 1.793 2.972v1.496c-0.737 0.043-1.422 0.139-1.982 0.283L35.352 42.69c-0.885 0.229-2.304 0.382-3.53 0.382-0.42 0-0.807-0.019-1.118-0.053l-6.958-0.779c0-0.063 0.005-0.129 0.017-0.197l2.578-14.716c0.139-0.794 0.968-1.49 1.774-1.49h43.769c0.806 0 1.635 0.696 1.773 1.49l2.578 14.716c0.012 0.067 0.017 0.133 0.018 0.197l-6.959 0.779C68.984 43.054 68.598 43.072 68.178 43.072zM70.251 55.486c0-2.56 2.231-4.635 4.983-4.635s4.982 2.075 4.982 4.635c0 2.561-2.23 4.637-4.982 4.637S70.251 58.047 70.251 55.486zM80.435 76.562c0 0.72-0.585 1.305-1.304 1.305h-3.914c-0.719 0-1.304-0.585-1.304-1.305v-4.999h6.521V76.562z" fill="#e9de2c" data-fill-palette-color="accent"></path></svg></g></svg></g><g><rect width="132.59991435212464" height="3.2143545004696428" y="87.11579032545367" x="262.92008564787534" fill="#e9de2c" data-fill-palette-color="accent"></rect><rect width="132.59991435212464" height="3.2143545004696428" y="87.11579032545367" x="0" fill="#e9de2c" data-fill-palette-color="accent"></rect><rect width="132.59991435212464" height="3.2143545004696428" y="80.68708132451438" x="262.92008564787534" fill="#e9de2c" data-fill-palette-color="accent"></rect><rect width="132.59991435212464" height="3.2143545004696428" y="80.68708132451438" x="0" fill="#e9de2c" data-fill-palette-color="accent"></rect></g></svg></g><defs></defs></svg><rect width="395.52" height="165.83017369968496" fill="none" stroke="none" visibility="hidden"></rect></g></svg></g></svg>